<?xml version="1.0" encoding="utf-8"?>
<!-- Generator: Adobe Illustrator 22.1.0, SVG Export Plug-In . SVG Version: 6.00 Build 0)  -->
<svg version="1.1" id="katman_1" xmlns="http://www.w3.org/2000/svg" xmlns:xlink="http://www.w3.org/1999/xlink" x="0px" y="0px"
	 viewBox="0 0 595.3 841.9" style="enable-background:new 0 0 595.3 841.9;" xml:space="preserve">
<style type="text/css">
	.st0{fill:#010202;}
	.st1{fill:#2295D2;}
	.st2{fill:#213978;}
	.st3{fill:#2098D5;}
	.st4{fill:#D1E6F7;}
	.st5{fill:#BFDAF3;}
	.st6{fill:#E0E0E1;}
	.st7{fill:#FFFFFF;}
	.st8{fill:#DADADA;}
	.st9{fill:#9D9D9C;}
</style>
<rect y="420.9" class="st0" width="595.3" height="420.9"/>
<g>
	<g>
		<path class="st1" d="M153.3,184.6c-0.1-0.1-0.3-0.1-0.7-0.1h-12.1c-0.7,0-1.2,0.3-1.4,1L126,222.3l-5.9-17.3l6.9-19.9
			c0,0,0-0.1,0-0.2c0-0.2-0.1-0.3-0.1-0.3c0,0-0.2-0.1-0.7-0.1h-12.4c-0.7,0-1.2,0.3-1.4,1l-11.5,37L97,211.1l-6.7,16.3
			c1.2,3.1,2.4,6.2,3.6,9.4c0.2,0.4,0.4,0.9,0.6,1.3c0.2,0.4,0.5,0.9,0.7,1.3l0,0.1c0,0.1,0.2,0.4,0.9,0.4h9.4
			c0.2,0,0.4-0.1,0.6-0.2c0.2-0.2,0.4-0.4,0.6-0.7c0.2-0.3,0.4-0.6,0.5-1c0.2-0.4,0.3-0.7,0.4-1.1c0.8-2.3,1.7-4.6,2.5-6.8
			c0.8-2.2,1.7-4.5,2.6-6.8l0.7-1.9l6.7,17.8c0.1,0.2,0.2,0.4,0.4,0.5c0.2,0.1,0.5,0.2,0.8,0.2h9.4c0.3,0,0.6-0.1,0.8-0.3
			c0.4-0.3,0.5-0.6,0.5-0.7c1.7-4.4,3.5-9,5.3-13.4c1.8-4.5,3.6-8.9,5.4-13.4c1.8-4.5,3.6-8.9,5.5-13.4c1.8-4.4,3.5-8.8,5.3-13.3
			l0-0.2c0,0,0-0.1,0-0.2C153.4,184.7,153.4,184.7,153.3,184.6z"/>
		<path class="st1" d="M93.2,212c1.8-4.5,3.6-8.9,5.5-13.4c1.8-4.4,3.5-8.8,5.3-13.3l0-0.2c0,0,0-0.1,0-0.2c0-0.2-0.1-0.3-0.1-0.3
			c-0.1-0.1-0.3-0.1-0.7-0.1H91.1c-0.7,0-1.2,0.3-1.4,1l-13.1,36.8L70.7,205l6.9-19.9c0,0,0-0.1,0-0.2c0-0.2-0.1-0.3-0.1-0.3
			c0,0-0.2-0.1-0.7-0.1H64.2c-0.7,0-1.2,0.3-1.4,1l-11.5,37l-12.4-37c-0.2-0.7-0.6-0.9-1.3-0.9H25.3c-0.7,0-0.7,0.2-0.7,0.3
			c0.1,0.2,0.1,0.3,0.1,0.5c3.3,8.6,6.5,17.2,9.8,25.7c3.3,8.5,6.5,17.1,9.8,25.8c0.2,0.4,0.4,0.9,0.6,1.3c0.2,0.4,0.5,0.9,0.7,1.3
			l0,0.1c0,0.1,0.2,0.4,0.9,0.4H56c0.2,0,0.4-0.1,0.6-0.2c0.2-0.2,0.4-0.4,0.6-0.7c0.2-0.3,0.4-0.6,0.5-1c0.2-0.4,0.3-0.7,0.4-1.1
			c0.8-2.3,1.7-4.6,2.5-6.8c0.8-2.2,1.7-4.5,2.6-6.8l0.7-1.9l6.7,17.8c0.1,0.2,0.2,0.4,0.4,0.5c0.2,0.1,0.5,0.2,0.8,0.2h9.4
			c0.3,0,0.6-0.1,0.8-0.3c0.4-0.3,0.5-0.6,0.5-0.7c1.7-4.4,3.5-9,5.3-13.4C89.6,220.9,91.4,216.4,93.2,212z"/>
	</g>
	<g>
		<path class="st1" d="M236.5,216.7c1.5-3.7,3-7.4,4.5-11c1.5-3.6,2.9-7.3,4.3-11l0-0.2c0,0,0-0.1,0-0.2c0-0.1,0-0.2-0.1-0.3
			c0,0-0.2-0.1-0.6-0.1h-9.9c-0.6,0-1,0.2-1.2,0.8l-10.8,30.4l-4.9-14.3l5.7-16.4c0,0,0-0.1,0-0.2c0-0.1,0-0.2-0.1-0.3
			c0,0-0.1-0.1-0.6-0.1h-10.3c-0.6,0-1,0.2-1.2,0.8l-9.5,30.5l-10.3-30.6c-0.2-0.5-0.5-0.8-1.1-0.8h-10.2c-0.6,0-0.6,0.1-0.6,0.3
			c0,0.1,0.1,0.3,0.1,0.4c2.7,7.1,5.4,14.2,8.1,21.2c2.7,7,5.4,14.1,8.1,21.3c0.1,0.3,0.3,0.7,0.5,1.1c0.2,0.4,0.4,0.7,0.6,1.1l0,0
			c0,0.1,0.1,0.3,0.8,0.3h7.7c0.2,0,0.3,0,0.5-0.2c0.2-0.1,0.4-0.3,0.5-0.6c0.2-0.3,0.3-0.5,0.4-0.8c0.1-0.3,0.2-0.6,0.4-0.9
			c0.7-1.9,1.4-3.8,2.1-5.6c0.7-1.8,1.4-3.7,2.1-5.6l0.6-1.5l5.6,14.7c0.1,0.2,0.2,0.3,0.3,0.4c0.1,0.1,0.4,0.1,0.7,0.1h7.7
			c0.3,0,0.5-0.1,0.6-0.3c0.3-0.3,0.4-0.5,0.4-0.5c1.4-3.7,2.9-7.4,4.3-11.1C233.5,224,235,220.3,236.5,216.7z"/>
		<path class="st1" d="M260.7,202.6c0-0.3-0.1-0.5-0.2-0.7c-0.1-0.2-0.3-0.5-0.5-0.6c-0.2-0.2-0.4-0.3-0.6-0.4
			c-0.2-0.1-0.4-0.1-0.6-0.1h-7.2c-0.6,0-1,0.2-1.3,0.5c-0.3,0.4-0.4,0.8-0.4,1.4v35.2c0,1.3,0.5,1.8,1.7,1.8h7.2
			c0.7,0,1.2-0.2,1.5-0.5c0.3-0.3,0.5-0.7,0.5-1.4V202.6z"/>
		<path class="st1" d="M301.2,205.1c-1.3-1.5-2.8-2.7-4.6-3.6c-1.8-0.9-3.9-1.3-6.2-1.3c-1.6,0-3.1,0.2-4.4,0.5
			c-1.3,0.4-2.5,0.8-3.5,1.3c-1,0.5-1.8,1.1-2.5,1.8c-0.7,0.6-1.1,1.3-1.4,1.8l-0.8,1.5l-1.1-4.4c-0.1-0.3-0.2-0.5-0.3-0.8
			c-0.1-0.2-0.2-0.4-0.4-0.6c-0.1-0.2-0.3-0.3-0.5-0.4c-0.2-0.1-0.4-0.1-0.7-0.1h-4.8c-0.2,0-0.5,0-0.7,0.1c-0.2,0-0.3,0.1-0.5,0.2
			l0,0c-0.2,0.1-0.4,0.3-0.5,0.5c-0.1,0.2-0.2,0.5-0.2,0.8v35.3c0,0.6,0.1,1,0.4,1.4c0.3,0.3,0.8,0.5,1.5,0.5h7.1
			c0.3,0,0.5,0,0.7-0.1c0.2,0,0.4-0.1,0.6-0.3c0.1-0.1,0.3-0.3,0.4-0.5c0.1-0.3,0.2-0.6,0.2-0.9v-20.5c0.1-1.1,0.4-2,0.9-2.9
			c0.5-0.9,1.1-1.6,1.8-2.3c0.7-0.6,1.5-1.2,2.3-1.5c0.9-0.4,1.7-0.6,2.6-0.6c1,0,1.9,0.2,2.8,0.6c0.9,0.4,1.7,0.9,2.5,1.6
			c0.7,0.7,1.3,1.4,1.8,2.3c0.5,0.9,0.7,1.9,0.7,2.9V238c0,1,0.2,1.2,0.3,1.3c0.1,0.1,0.4,0.3,1.5,0.3h7.3c0.6,0,1-0.1,1.2-0.4
			c0.2-0.3,0.4-0.8,0.4-1.4v-20.7c0-2.3-0.3-4.6-1-6.6C303.4,208.4,302.5,206.6,301.2,205.1z"/>
		<path class="st1" d="M364.8,216.7c1.5-3.7,3-7.4,4.5-11c1.5-3.6,2.9-7.3,4.3-11l0-0.2c0,0,0-0.1,0-0.2c0-0.1,0-0.2-0.1-0.3
			c0,0-0.2-0.1-0.6-0.1H363c-0.6,0-1,0.2-1.2,0.8L351,225.1l-4.9-14.3l5.7-16.4c0,0,0-0.1,0-0.2c0-0.1,0-0.2-0.1-0.3
			c0,0-0.1-0.1-0.6-0.1h-10.3c-0.6,0-1,0.2-1.2,0.8l-9.5,30.5L320,194.7c-0.2-0.5-0.5-0.8-1.1-0.8h-10.2c-0.6,0-0.6,0.1-0.6,0.3
			c0,0.1,0.1,0.3,0.1,0.4c2.7,7.1,5.4,14.2,8.1,21.2c2.7,7,5.4,14.1,8.1,21.3c0.1,0.3,0.3,0.7,0.5,1.1c0.2,0.4,0.4,0.7,0.6,1.1l0,0
			c0,0.1,0.1,0.3,0.8,0.3h7.7c0.2,0,0.3,0,0.5-0.2c0.2-0.1,0.4-0.3,0.5-0.6c0.2-0.3,0.3-0.5,0.4-0.8c0.1-0.3,0.2-0.6,0.4-0.9
			c0.7-1.9,1.4-3.8,2.1-5.6c0.7-1.8,1.4-3.7,2.1-5.6l0.6-1.5l5.6,14.7c0.1,0.2,0.2,0.3,0.3,0.4c0.1,0.1,0.4,0.1,0.7,0.1h7.7
			c0.3,0,0.5-0.1,0.6-0.3c0.3-0.3,0.4-0.5,0.4-0.5c1.4-3.7,2.9-7.4,4.3-11.1C361.8,224,363.3,220.3,364.8,216.7z"/>
		<path class="st1" d="M377.5,202.6c0-0.7,0.2-1.3,0.6-1.7c0.4-0.5,1-0.7,1.8-0.7h7.2c0.3,0,0.5,0.1,0.8,0.2
			c0.3,0.1,0.6,0.3,0.8,0.5c0.3,0.2,0.5,0.5,0.6,0.8c0.2,0.3,0.3,0.6,0.3,1v35.2c0,0.8-0.2,1.4-0.7,1.8c-0.4,0.4-1.1,0.6-1.9,0.6
			h-7.2c-1.6,0-2.3-0.8-2.3-2.4V202.6z"/>
		<path class="st1" d="M388.5,194.1c0.2-0.2,0.3-0.5,0.4-0.7c0.1-0.2,0.1-0.4,0.1-0.6v-6.2c0-0.7-0.2-1.2-0.5-1.4
			c-0.3-0.3-0.8-0.4-1.4-0.4h-7.3c-0.6,0-1.1,0.1-1.3,0.4c-0.3,0.2-0.4,0.7-0.4,1.4v6.2c0,1.8,0.9,2,1.7,2h7.3
			c0.3,0,0.5-0.1,0.7-0.2C388.1,194.5,388.3,194.3,388.5,194.1z"/>
		<path class="st1" d="M260.2,194.1c0.2-0.2,0.3-0.5,0.4-0.7c0.1-0.2,0.1-0.4,0.1-0.6v-6.2c0-0.7-0.2-1.2-0.5-1.4
			c-0.3-0.3-0.8-0.4-1.4-0.4h-7.3c-0.6,0-1.1,0.1-1.3,0.4c-0.3,0.2-0.4,0.7-0.4,1.4v6.2c0,1.8,0.9,2,1.7,2h7.3
			c0.3,0,0.5-0.1,0.7-0.2C259.8,194.5,260,194.3,260.2,194.1z"/>
		<path class="st1" d="M429.5,205.1c-1.3-1.5-2.8-2.7-4.6-3.6c-1.8-0.9-3.9-1.3-6.2-1.3c-1.6,0-3.1,0.2-4.4,0.5
			c-1.3,0.4-2.5,0.8-3.5,1.3c-1,0.5-1.8,1.1-2.5,1.8c-0.7,0.6-1.1,1.3-1.4,1.8l-0.8,1.5l-1.1-4.4c-0.1-0.3-0.2-0.5-0.3-0.8
			c-0.1-0.2-0.2-0.4-0.4-0.6c-0.1-0.2-0.3-0.3-0.5-0.4c-0.2-0.1-0.4-0.1-0.7-0.1h-4.8c-0.2,0-0.5,0-0.7,0.1c-0.2,0-0.3,0.1-0.5,0.2
			l0,0c-0.2,0.1-0.4,0.3-0.5,0.5c-0.1,0.2-0.2,0.5-0.2,0.8v35.3c0,0.6,0.1,1,0.4,1.4c0.3,0.3,0.8,0.5,1.5,0.5h7.1
			c0.3,0,0.5,0,0.7-0.1c0.2,0,0.4-0.1,0.6-0.3c0.1-0.1,0.3-0.3,0.4-0.5c0.1-0.3,0.2-0.6,0.2-0.9v-20.5c0.1-1.1,0.4-2,0.9-2.9
			c0.5-0.9,1.1-1.6,1.8-2.3c0.7-0.6,1.5-1.2,2.3-1.5c0.9-0.4,1.7-0.6,2.6-0.6c1,0,1.9,0.2,2.8,0.6c0.9,0.4,1.7,0.9,2.5,1.6
			c0.7,0.7,1.3,1.4,1.8,2.3c0.5,0.9,0.7,1.9,0.7,2.9V238c0,1,0.2,1.2,0.3,1.3c0.1,0.1,0.4,0.3,1.5,0.3h7.3c0.6,0,1-0.1,1.2-0.4
			c0.2-0.3,0.4-0.8,0.4-1.4v-20.7c0-2.3-0.3-4.6-1-6.6C431.7,208.4,430.7,206.6,429.5,205.1z"/>
		<path class="st2" d="M441.9,239.6h28.2c0.3,0,0.5-0.1,0.6-0.2c0.2-0.2,0.2-0.4,0.2-0.6v-8.3c0-0.4-0.1-0.5-0.2-0.6
			c-0.2-0.1-0.3-0.2-0.6-0.2h-18v-35c0-0.2-0.1-0.4-0.3-0.5c-0.2-0.2-0.4-0.2-0.6-0.2h-9.3c-0.4,0-0.5,0.1-0.6,0.2
			c-0.1,0.2-0.2,0.3-0.2,0.6v44.1C441.1,239.4,441.3,239.6,441.9,239.6z"/>
		<path class="st2" d="M516.3,201L516.3,201c-0.2-0.2-0.4-0.3-0.6-0.3c-0.3-0.1-0.5-0.1-0.7-0.1h-4.7c-0.5,0-0.7,0-0.8,0.1
			c-0.1,0-0.2,0.1-0.3,0.2c-0.1,0.1-0.2,0.2-0.3,0.5c-0.1,0.3-0.3,0.7-0.5,1.3l-1.3,4l-0.7-1c-0.5-0.8-1.2-1.5-1.9-2.2
			c-0.7-0.7-1.5-1.2-2.4-1.7c-0.9-0.5-1.9-0.9-3-1.1c-1.1-0.3-2.2-0.4-3.5-0.4c-2.8,0-5.4,0.5-7.8,1.5c-2.4,1-4.5,2.5-6.3,4.3
			c-1.8,1.8-3.2,3.9-4.3,6.4c-1,2.4-1.6,5.1-1.6,7.9c0,1.9,0.2,3.7,0.7,5.4c0.5,1.7,1.1,3.3,2,4.8c0.9,1.5,1.9,2.9,3.1,4.1
			c1.2,1.2,2.6,2.3,4,3.1c1.5,0.9,3.1,1.5,4.8,2c1.7,0.5,3.5,0.7,5.3,0.7c1,0,2-0.1,3-0.4c1-0.3,1.9-0.6,2.7-1
			c0.8-0.4,1.6-0.9,2.3-1.4c0.7-0.5,1.3-1.1,1.9-1.6l0.7-0.7l0.7,2.4c0.1,0.3,0.2,0.6,0.3,0.9c0.1,0.2,0.2,0.4,0.3,0.6
			c0.1,0.1,0.2,0.2,0.4,0.3c0.1,0.1,0.4,0.1,0.8,0.1h6.2c0.2,0,0.4,0,0.7-0.1c0.2,0,0.4-0.1,0.5-0.3l0.1-0.1
			c0.2-0.1,0.3-0.3,0.4-0.5c0.1-0.3,0.1-0.5,0.1-0.8v-35.6c0-0.3,0-0.6-0.1-0.8C516.7,201.3,516.5,201.2,516.3,201z M505.3,224.3
			c-0.5,1.3-1.3,2.4-2.2,3.3c-0.9,0.9-2.1,1.7-3.3,2.2c-1.3,0.5-2.7,0.8-4.2,0.8c-1.5,0-2.8-0.3-4-0.8c-1.2-0.5-2.2-1.3-3.1-2.2
			c-0.9-0.9-1.5-2.1-2-3.3c-0.5-1.3-0.7-2.6-0.7-4.1c0-1.4,0.2-2.8,0.7-4.1c0.5-1.3,1.1-2.4,2-3.4c0.9-1,1.9-1.8,3.1-2.3
			c1.2-0.6,2.6-0.9,4-0.9c1.5,0,2.9,0.3,4.2,0.9c1.3,0.6,2.4,1.4,3.3,2.3c0.9,1,1.7,2.1,2.2,3.4c0.5,1.3,0.8,2.7,0.8,4.1
			C506.1,221.7,505.8,223.1,505.3,224.3z"/>
		<g>
			<path class="st2" d="M549.1,200.8c-5.3,0-10,2.1-13.6,5.4v-12.2v-1.6c0-0.5-0.2-0.9-0.5-1.3c-0.3-0.3-0.8-0.5-1.5-0.5h-7.2
				c-0.2,0-0.4,0-0.6,0.1c-0.2,0.1-0.4,0.2-0.6,0.4c-0.2,0.2-0.3,0.3-0.4,0.6c-0.1,0.2-0.1,0.5-0.1,0.7v43v1v1.3v0.3
				c0,0.5,0.2,0.9,0.5,1.3c0.3,0.3,0.8,0.5,1.5,0.5h7.2c0.2,0,0.4,0,0.6-0.1c0.2-0.1,0.4-0.2,0.6-0.4c0.2-0.2,0.3-0.3,0.4-0.6
				c0.1-0.2,0.1-0.5,0.1-0.7v-1v-1.4c3.6,3.3,8.4,5.4,13.6,5.4c11.1,0,20.1-9,20.1-20.1C569.1,209.8,560.1,200.8,549.1,200.8z"/>
			<g>
				<path class="st3" d="M545.1,194.1c0,1.9,1.5,3.4,3.4,3.4c1.9,0,3.4-1.5,3.4-3.4c0-1.9-1.5-3.4-3.4-3.4
					C546.6,190.7,545.1,192.3,545.1,194.1"/>
				<path class="st3" d="M552.7,189.4c0,1.8,1.4,3.2,3.2,3.2c1.8,0,3.2-1.4,3.2-3.2c0-1.8-1.4-3.2-3.2-3.2
					C554.1,186.1,552.7,187.6,552.7,189.4"/>
				<path class="st3" d="M548.9,182.1c0,1.2,1,2.2,2.2,2.2s2.2-1,2.2-2.2c0-1.2-1-2.2-2.2-2.2S548.9,180.9,548.9,182.1"/>
			</g>
			<g>
				<path class="st4" d="M544,200.9h9.8c0.6,0,1.1,0.5,1.1,1.1l0,0c0,0.6-0.5,1.1-1.1,1.1H544c-0.6,0-1.1-0.5-1.1-1.1l0,0
					C542.9,201.4,543.4,200.9,544,200.9z"/>
				<path class="st5" d="M562,220.6c0,0.1,0,0.2,0,0.3l-1.8,0c-2.7-0.1-3.3-0.5-6.9-0.5c-2.2,0-3.3,0.1-4.4,0.3
					c-1.1,0.1-2.2,0.3-4.4,0.3c-3.7,0-4.3-0.4-6.9-0.5c-0.5,0-1.1,0-1.8,0c0.1-5.5,3.6-10.3,8.7-12.1v-5.1h8.7v5.1
					C558.5,210.1,562,215,562,220.6z"/>
				<path class="st1" d="M562,220.8c-0.1,7.1-6,12.8-13.1,12.8c-7.2,0-13.1-5.9-13.1-13.1c0-0.1,0-0.2,0-0.3l1.8,0
					c2.7,0.1,3.3,0.5,6.9,0.5c2.2,0,3.3-0.1,4.4-0.3c1.1-0.1,2.2-0.3,4.4-0.3c3.7,0,4.3,0.4,6.9,0.5
					C560.7,220.8,561.3,220.8,562,220.8z"/>
				<g>
					<path class="st6" d="M535.8,220.3c0.7,0,1.3,0,1.8,0L535.8,220.3z"/>
					<path class="st6" d="M562,220.8c-0.7,0-1.3,0-1.8,0L562,220.8z"/>
					<path class="st6" d="M537.6,220.3l-1.8,0C536.5,220.3,537.1,220.3,537.6,220.3z"/>
					<path class="st6" d="M562,220.8c-0.7,0-1.3,0-1.8,0L562,220.8z"/>
				</g>
				<g>
					<path class="st2" d="M546.2,205.8h2.2c0.3,0,0.5-0.2,0.5-0.5s-0.2-0.5-0.5-0.5h-2.2c-0.3,0-0.5,0.2-0.5,0.5
						S545.9,205.8,546.2,205.8z"/>
					<path class="st2" d="M546.2,207.5h2.2c0.3,0,0.5-0.2,0.5-0.5c0-0.3-0.2-0.5-0.5-0.5h-2.2c-0.3,0-0.5,0.2-0.5,0.5
						C545.6,207.2,545.9,207.5,546.2,207.5z"/>
					<path class="st2" d="M562.1,216.9c-1.1-4.1-4.1-7.5-8.2-9.1v-4.2c0.9,0,1.6-0.7,1.6-1.6s-0.7-1.6-1.6-1.6H544
						c-0.9,0-1.6,0.7-1.6,1.6s0.7,1.6,1.6,1.6v4.2c-3.5,1.3-6.2,4-7.6,7.3c-1.6,3.2-1.1,6.3-1.1,6.3c0.4,7.1,6.4,12.8,13.6,12.8
						c6.9,0,12.7-5.2,13.5-11.9C562.5,222.3,562.6,218.5,562.1,216.9z M543.5,202c0-0.3,0.2-0.5,0.5-0.5h9.8c0.3,0,0.5,0.2,0.5,0.5
						s-0.2,0.5-0.5,0.5H544C543.7,202.5,543.5,202.3,543.5,202z M544.7,208.7c0.2-0.1,0.4-0.3,0.4-0.5v-4.6h7.6v4.6
						c0,0.2,0.1,0.4,0.4,0.5c4.1,1.5,7.1,4.9,8,9c-4.1,3.3-9.1,0.2-9.1,0.2c-6.4-3.5-11-4-14.2-3.2
						C539.3,212,541.7,209.8,544.7,208.7z M548.9,233.1c-6.6,0-11.7-5.1-12.5-11.5l5.8,0.7l8.1-1.3l11.1,1.2
						C560.5,228.3,555.3,233.1,548.9,233.1z"/>
				</g>
				<path class="st1" d="M551.8,220.1c-6.9-4-11.7-3.9-14.9-2.6c-1.2,2.7-0.2,5.3,0.1,6.7l15.7,0.5l8.6-2.5l0.2-2.1
					C557.2,223.8,551.8,220.1,551.8,220.1z"/>
			</g>
		</g>
	</g>
</g>
<g>
	<g>
		<path class="st7" d="M153.3,605.5c-0.1-0.1-0.3-0.1-0.7-0.1h-12.1c-0.7,0-1.2,0.3-1.4,1L126,643.2l-5.9-17.3L127,606
			c0,0,0-0.1,0-0.2c0-0.2-0.1-0.3-0.1-0.3c0,0-0.2-0.1-0.7-0.1h-12.4c-0.7,0-1.2,0.3-1.4,1l-11.5,37L97,632.1l-6.7,16.3
			c1.2,3.1,2.4,6.2,3.6,9.4c0.2,0.4,0.4,0.9,0.6,1.3c0.2,0.4,0.5,0.9,0.7,1.3l0,0.1c0,0.1,0.2,0.4,0.9,0.4h9.4
			c0.2,0,0.4-0.1,0.6-0.2c0.2-0.2,0.4-0.4,0.6-0.7c0.2-0.3,0.4-0.6,0.5-1c0.2-0.4,0.3-0.7,0.4-1.1c0.8-2.3,1.7-4.6,2.5-6.8
			c0.8-2.2,1.7-4.5,2.6-6.8l0.7-1.9l6.7,17.8c0.1,0.2,0.2,0.4,0.4,0.5c0.2,0.1,0.5,0.2,0.8,0.2h9.4c0.3,0,0.6-0.1,0.8-0.3
			c0.4-0.3,0.5-0.6,0.5-0.7c1.7-4.4,3.5-9,5.3-13.4c1.8-4.5,3.6-8.9,5.4-13.4c1.8-4.5,3.6-8.9,5.5-13.4c1.8-4.4,3.5-8.8,5.3-13.3
			l0-0.2c0,0,0-0.1,0-0.2C153.4,605.7,153.4,605.6,153.3,605.5z"/>
		<path class="st7" d="M93.2,632.9c1.8-4.5,3.6-8.9,5.5-13.4c1.8-4.4,3.5-8.8,5.3-13.3l0-0.2c0,0,0-0.1,0-0.2c0-0.2-0.1-0.3-0.1-0.3
			c-0.1-0.1-0.3-0.1-0.7-0.1H91.1c-0.7,0-1.2,0.3-1.4,1l-13.1,36.8l-5.9-17.3l6.9-19.9c0,0,0-0.1,0-0.2c0-0.2-0.1-0.3-0.1-0.3
			c0,0-0.2-0.1-0.7-0.1H64.2c-0.7,0-1.2,0.3-1.4,1l-11.5,37l-12.4-37c-0.2-0.7-0.6-0.9-1.3-0.9H25.3c-0.7,0-0.7,0.2-0.7,0.3
			c0.1,0.2,0.1,0.3,0.1,0.5c3.3,8.6,6.5,17.2,9.8,25.7c3.3,8.5,6.5,17.1,9.8,25.8c0.2,0.4,0.4,0.9,0.6,1.3c0.2,0.4,0.5,0.9,0.7,1.3
			l0,0.1c0,0.1,0.2,0.4,0.9,0.4H56c0.2,0,0.4-0.1,0.6-0.2c0.2-0.2,0.4-0.4,0.6-0.7c0.2-0.3,0.4-0.6,0.5-1c0.2-0.4,0.3-0.7,0.4-1.1
			c0.8-2.3,1.7-4.6,2.5-6.8c0.8-2.2,1.7-4.5,2.6-6.8l0.7-1.9l6.7,17.8c0.1,0.2,0.2,0.4,0.4,0.5c0.2,0.1,0.5,0.2,0.8,0.2h9.4
			c0.3,0,0.6-0.1,0.8-0.3c0.4-0.3,0.5-0.6,0.5-0.7c1.7-4.4,3.5-9,5.3-13.4C89.6,641.9,91.4,637.4,93.2,632.9z"/>
	</g>
	<g>
		<path class="st7" d="M236.5,637.6c1.5-3.7,3-7.4,4.5-11c1.5-3.6,2.9-7.3,4.3-11l0-0.2c0,0,0-0.1,0-0.2c0-0.1,0-0.2-0.1-0.3
			c0,0-0.2-0.1-0.6-0.1h-9.9c-0.6,0-1,0.2-1.2,0.8l-10.8,30.4l-4.9-14.3l5.7-16.4c0,0,0-0.1,0-0.2c0-0.1,0-0.2-0.1-0.3
			c0,0-0.1-0.1-0.6-0.1h-10.3c-0.6,0-1,0.2-1.2,0.8l-9.5,30.5l-10.3-30.6c-0.2-0.5-0.5-0.8-1.1-0.8h-10.2c-0.6,0-0.6,0.1-0.6,0.3
			c0,0.1,0.1,0.3,0.1,0.4c2.7,7.1,5.4,14.2,8.1,21.2c2.7,7,5.4,14.1,8.1,21.3c0.1,0.3,0.3,0.7,0.5,1.1c0.2,0.4,0.4,0.7,0.6,1.1l0,0
			c0,0.1,0.1,0.3,0.8,0.3h7.7c0.2,0,0.3,0,0.5-0.2c0.2-0.1,0.4-0.3,0.5-0.6c0.2-0.3,0.3-0.5,0.4-0.8c0.1-0.3,0.2-0.6,0.4-0.9
			c0.7-1.9,1.4-3.8,2.1-5.6c0.7-1.8,1.4-3.7,2.1-5.6l0.6-1.5l5.6,14.7c0.1,0.2,0.2,0.3,0.3,0.4c0.1,0.1,0.4,0.1,0.7,0.1h7.7
			c0.3,0,0.5-0.1,0.6-0.3c0.3-0.3,0.4-0.5,0.4-0.5c1.4-3.7,2.9-7.4,4.3-11.1C233.5,645,235,641.3,236.5,637.6z"/>
		<path class="st7" d="M260.7,623.5c0-0.3-0.1-0.5-0.2-0.7c-0.1-0.2-0.3-0.5-0.5-0.6c-0.2-0.2-0.4-0.3-0.6-0.4
			c-0.2-0.1-0.4-0.1-0.6-0.1h-7.2c-0.6,0-1,0.2-1.3,0.5c-0.3,0.4-0.4,0.8-0.4,1.4v35.2c0,1.3,0.5,1.8,1.7,1.8h7.2
			c0.7,0,1.2-0.2,1.5-0.5c0.3-0.3,0.5-0.7,0.5-1.4V623.5z"/>
		<path class="st7" d="M301.2,626c-1.3-1.5-2.8-2.7-4.6-3.6c-1.8-0.9-3.9-1.3-6.2-1.3c-1.6,0-3.1,0.2-4.4,0.5
			c-1.3,0.4-2.5,0.8-3.5,1.3c-1,0.5-1.8,1.1-2.5,1.8c-0.7,0.6-1.1,1.3-1.4,1.8l-0.8,1.5l-1.1-4.4c-0.1-0.3-0.2-0.5-0.3-0.8
			c-0.1-0.2-0.2-0.4-0.4-0.6c-0.1-0.2-0.3-0.3-0.5-0.4c-0.2-0.1-0.4-0.1-0.7-0.1h-4.8c-0.2,0-0.5,0-0.7,0.1c-0.2,0-0.3,0.1-0.5,0.2
			l0,0c-0.2,0.1-0.4,0.3-0.5,0.5c-0.1,0.2-0.2,0.5-0.2,0.8v35.3c0,0.6,0.1,1,0.4,1.4c0.3,0.3,0.8,0.5,1.5,0.5h7.1
			c0.3,0,0.5,0,0.7-0.1c0.2,0,0.4-0.1,0.6-0.3c0.1-0.1,0.3-0.3,0.4-0.5c0.1-0.3,0.2-0.6,0.2-0.9v-20.5c0.1-1.1,0.4-2,0.9-2.9
			c0.5-0.9,1.1-1.6,1.8-2.3c0.7-0.6,1.5-1.2,2.3-1.5c0.9-0.4,1.7-0.6,2.6-0.6c1,0,1.9,0.2,2.8,0.6c0.9,0.4,1.7,0.9,2.5,1.6
			c0.7,0.7,1.3,1.4,1.8,2.3c0.5,0.9,0.7,1.9,0.7,2.9v20.5c0,1,0.2,1.2,0.3,1.3c0.1,0.1,0.4,0.3,1.5,0.3h7.3c0.6,0,1-0.1,1.2-0.4
			c0.2-0.3,0.4-0.8,0.4-1.4v-20.7c0-2.3-0.3-4.6-1-6.6C303.4,629.4,302.5,627.6,301.2,626z"/>
		<path class="st7" d="M364.8,637.6c1.5-3.7,3-7.4,4.5-11c1.5-3.6,2.9-7.3,4.3-11l0-0.2c0,0,0-0.1,0-0.2c0-0.1,0-0.2-0.1-0.3
			c0,0-0.2-0.1-0.6-0.1H363c-0.6,0-1,0.2-1.2,0.8L351,646.1l-4.9-14.3l5.7-16.4c0,0,0-0.1,0-0.2c0-0.1,0-0.2-0.1-0.3
			c0,0-0.1-0.1-0.6-0.1h-10.3c-0.6,0-1,0.2-1.2,0.8l-9.5,30.5L320,615.7c-0.2-0.5-0.5-0.8-1.1-0.8h-10.2c-0.6,0-0.6,0.1-0.6,0.3
			c0,0.1,0.1,0.3,0.1,0.4c2.7,7.1,5.4,14.2,8.1,21.2c2.7,7,5.4,14.1,8.1,21.3c0.1,0.3,0.3,0.7,0.5,1.1c0.2,0.4,0.4,0.7,0.6,1.1l0,0
			c0,0.1,0.1,0.3,0.8,0.3h7.7c0.2,0,0.3,0,0.5-0.2c0.2-0.1,0.4-0.3,0.5-0.6c0.2-0.3,0.3-0.5,0.4-0.8c0.1-0.3,0.2-0.6,0.4-0.9
			c0.7-1.9,1.4-3.8,2.1-5.6c0.7-1.8,1.4-3.7,2.1-5.6l0.6-1.5l5.6,14.7c0.1,0.2,0.2,0.3,0.3,0.4c0.1,0.1,0.4,0.1,0.7,0.1h7.7
			c0.3,0,0.5-0.1,0.6-0.3c0.3-0.3,0.4-0.5,0.4-0.5c1.4-3.7,2.9-7.4,4.3-11.1C361.8,645,363.3,641.3,364.8,637.6z"/>
		<path class="st7" d="M377.5,623.5c0-0.7,0.2-1.3,0.6-1.7c0.4-0.5,1-0.7,1.8-0.7h7.2c0.3,0,0.5,0.1,0.8,0.2
			c0.3,0.1,0.6,0.3,0.8,0.5c0.3,0.2,0.5,0.5,0.6,0.8c0.2,0.3,0.3,0.6,0.3,1v35.2c0,0.8-0.2,1.4-0.7,1.8c-0.4,0.4-1.1,0.6-1.9,0.6
			h-7.2c-1.6,0-2.3-0.8-2.3-2.4V623.5z"/>
		<path class="st7" d="M388.5,615c0.2-0.2,0.3-0.5,0.4-0.7c0.1-0.2,0.1-0.4,0.1-0.6v-6.2c0-0.7-0.2-1.2-0.5-1.4
			c-0.3-0.3-0.8-0.4-1.4-0.4h-7.3c-0.6,0-1.1,0.1-1.3,0.4c-0.3,0.2-0.4,0.7-0.4,1.4v6.2c0,1.8,0.9,2,1.7,2h7.3
			c0.3,0,0.5-0.1,0.7-0.2C388.1,615.4,388.3,615.2,388.5,615z"/>
		<path class="st7" d="M260.2,615c0.2-0.2,0.3-0.5,0.4-0.7c0.1-0.2,0.1-0.4,0.1-0.6v-6.2c0-0.7-0.2-1.2-0.5-1.4
			c-0.3-0.3-0.8-0.4-1.4-0.4h-7.3c-0.6,0-1.1,0.1-1.3,0.4c-0.3,0.2-0.4,0.7-0.4,1.4v6.2c0,1.8,0.9,2,1.7,2h7.3
			c0.3,0,0.5-0.1,0.7-0.2C259.8,615.4,260,615.2,260.2,615z"/>
		<path class="st7" d="M429.5,626c-1.3-1.5-2.8-2.7-4.6-3.6c-1.8-0.9-3.9-1.3-6.2-1.3c-1.6,0-3.1,0.2-4.4,0.5
			c-1.3,0.4-2.5,0.8-3.5,1.3c-1,0.5-1.8,1.1-2.5,1.8c-0.7,0.6-1.1,1.3-1.4,1.8l-0.8,1.5l-1.1-4.4c-0.1-0.3-0.2-0.5-0.3-0.8
			c-0.1-0.2-0.2-0.4-0.4-0.6c-0.1-0.2-0.3-0.3-0.5-0.4c-0.2-0.1-0.4-0.1-0.7-0.1h-4.8c-0.2,0-0.5,0-0.7,0.1c-0.2,0-0.3,0.1-0.5,0.2
			l0,0c-0.2,0.1-0.4,0.3-0.5,0.5c-0.1,0.2-0.2,0.5-0.2,0.8v35.3c0,0.6,0.1,1,0.4,1.4c0.3,0.3,0.8,0.5,1.5,0.5h7.1
			c0.3,0,0.5,0,0.7-0.1c0.2,0,0.4-0.1,0.6-0.3c0.1-0.1,0.3-0.3,0.4-0.5c0.1-0.3,0.2-0.6,0.2-0.9v-20.5c0.1-1.1,0.4-2,0.9-2.9
			c0.5-0.9,1.1-1.6,1.8-2.3c0.7-0.6,1.5-1.2,2.3-1.5c0.9-0.4,1.7-0.6,2.6-0.6c1,0,1.9,0.2,2.8,0.6c0.9,0.4,1.7,0.9,2.5,1.6
			c0.7,0.7,1.3,1.4,1.8,2.3c0.5,0.9,0.7,1.9,0.7,2.9v20.5c0,1,0.2,1.2,0.3,1.3c0.1,0.1,0.4,0.3,1.5,0.3h7.3c0.6,0,1-0.1,1.2-0.4
			c0.2-0.3,0.4-0.8,0.4-1.4v-20.7c0-2.3-0.3-4.6-1-6.6C431.7,629.4,430.7,627.6,429.5,626z"/>
		<path class="st7" d="M441.9,660.5h28.2c0.3,0,0.5-0.1,0.6-0.2c0.2-0.2,0.2-0.4,0.2-0.6v-8.3c0-0.4-0.1-0.5-0.2-0.6
			c-0.2-0.1-0.3-0.2-0.6-0.2h-18v-35c0-0.2-0.1-0.4-0.3-0.5c-0.2-0.2-0.4-0.2-0.6-0.2h-9.3c-0.4,0-0.5,0.1-0.6,0.2
			c-0.1,0.2-0.2,0.3-0.2,0.6v44.1C441.1,660.4,441.3,660.5,441.9,660.5z"/>
		<path class="st7" d="M516.3,621.9L516.3,621.9c-0.2-0.2-0.4-0.3-0.6-0.3c-0.3-0.1-0.5-0.1-0.7-0.1h-4.7c-0.5,0-0.7,0-0.8,0.1
			c-0.1,0-0.2,0.1-0.3,0.2c-0.1,0.1-0.2,0.2-0.3,0.5c-0.1,0.3-0.3,0.7-0.5,1.3l-1.3,4l-0.7-1c-0.5-0.8-1.2-1.5-1.9-2.2
			c-0.7-0.7-1.5-1.2-2.4-1.7c-0.9-0.5-1.9-0.9-3-1.1c-1.1-0.3-2.2-0.4-3.5-0.4c-2.8,0-5.4,0.5-7.8,1.5c-2.4,1-4.5,2.5-6.3,4.3
			c-1.8,1.8-3.2,3.9-4.3,6.4c-1,2.4-1.6,5.1-1.6,7.9c0,1.9,0.2,3.7,0.7,5.4c0.5,1.7,1.1,3.3,2,4.8c0.9,1.5,1.9,2.9,3.1,4.1
			c1.2,1.2,2.6,2.3,4,3.1c1.5,0.9,3.1,1.5,4.8,2c1.7,0.5,3.5,0.7,5.3,0.7c1,0,2-0.1,3-0.4c1-0.3,1.9-0.6,2.7-1
			c0.8-0.4,1.6-0.9,2.3-1.4c0.7-0.5,1.3-1.1,1.9-1.6l0.7-0.7l0.7,2.4c0.1,0.3,0.2,0.6,0.3,0.9c0.1,0.2,0.2,0.4,0.3,0.6
			c0.1,0.1,0.2,0.2,0.4,0.3c0.1,0.1,0.4,0.1,0.8,0.1h6.2c0.2,0,0.4,0,0.7-0.1c0.2,0,0.4-0.1,0.5-0.3l0.1-0.1
			c0.2-0.1,0.3-0.3,0.4-0.5c0.1-0.3,0.1-0.5,0.1-0.8v-35.6c0-0.3,0-0.6-0.1-0.8C516.7,622.3,516.5,622.1,516.3,621.9z M505.3,645.3
			c-0.5,1.3-1.3,2.4-2.2,3.3c-0.9,0.9-2.1,1.7-3.3,2.2c-1.3,0.5-2.7,0.8-4.2,0.8c-1.5,0-2.8-0.3-4-0.8c-1.2-0.5-2.2-1.3-3.1-2.2
			c-0.9-0.9-1.5-2.1-2-3.3c-0.5-1.3-0.7-2.6-0.7-4.1c0-1.4,0.2-2.8,0.7-4.1c0.5-1.3,1.1-2.4,2-3.4c0.9-1,1.9-1.8,3.1-2.3
			c1.2-0.6,2.6-0.9,4-0.9c1.5,0,2.9,0.3,4.2,0.9c1.3,0.6,2.4,1.4,3.3,2.3c0.9,1,1.7,2.1,2.2,3.4c0.5,1.3,0.8,2.7,0.8,4.1
			C506.1,642.6,505.8,644,505.3,645.3z"/>
		<g>
			<path class="st7" d="M549.1,621.8c-5.3,0-10,2.1-13.6,5.4V615v-1.6c0-0.5-0.2-0.9-0.5-1.3c-0.3-0.3-0.8-0.5-1.5-0.5h-7.2
				c-0.2,0-0.4,0-0.6,0.1c-0.2,0.1-0.4,0.2-0.6,0.4c-0.2,0.2-0.3,0.3-0.4,0.6c-0.1,0.2-0.1,0.5-0.1,0.7v43v1v1.3v0.3
				c0,0.5,0.2,0.9,0.5,1.3c0.3,0.3,0.8,0.5,1.5,0.5h7.2c0.2,0,0.4,0,0.6-0.1c0.2-0.1,0.4-0.2,0.6-0.4c0.2-0.2,0.3-0.3,0.4-0.6
				c0.1-0.2,0.1-0.5,0.1-0.7v-1v-1.4c3.6,3.3,8.4,5.4,13.6,5.4c11.1,0,20.1-9,20.1-20.1C569.1,630.8,560.1,621.8,549.1,621.8z"/>
			<g>
				<path class="st7" d="M545.1,615.1c0,1.9,1.5,3.4,3.4,3.4c1.9,0,3.4-1.5,3.4-3.4s-1.5-3.4-3.4-3.4
					C546.6,611.7,545.1,613.2,545.1,615.1"/>
				<path class="st7" d="M552.7,610.3c0,1.8,1.4,3.2,3.2,3.2c1.8,0,3.2-1.4,3.2-3.2c0-1.8-1.4-3.2-3.2-3.2
					C554.1,607.1,552.7,608.5,552.7,610.3"/>
				<path class="st7" d="M548.9,603.1c0,1.2,1,2.2,2.2,2.2s2.2-1,2.2-2.2c0-1.2-1-2.2-2.2-2.2S548.9,601.9,548.9,603.1"/>
			</g>
			<g>
				<path class="st7" d="M544,621.8h9.8c0.6,0,1.1,0.5,1.1,1.1l0,0c0,0.6-0.5,1.1-1.1,1.1H544c-0.6,0-1.1-0.5-1.1-1.1l0,0
					C542.9,622.3,543.4,621.8,544,621.8z"/>
				<path class="st8" d="M562,641.5c0,0.1,0,0.2,0,0.3l-1.8,0c-2.7-0.1-3.3-0.5-6.9-0.5c-2.2,0-3.3,0.1-4.4,0.3
					c-1.1,0.1-2.2,0.3-4.4,0.3c-3.7,0-4.3-0.4-6.9-0.5c-0.5,0-1.1,0-1.8,0c0.1-5.5,3.6-10.3,8.7-12.1V624h8.7v5.1
					C558.5,631,562,636,562,641.5z"/>
				<path class="st7" d="M562,641.8c-0.1,7.1-6,12.8-13.1,12.8c-7.2,0-13.1-5.9-13.1-13.1c0-0.1,0-0.2,0-0.3l1.8,0
					c2.7,0.1,3.3,0.5,6.9,0.5c2.2,0,3.3-0.1,4.4-0.3c1.1-0.1,2.2-0.3,4.4-0.3c3.7,0,4.3,0.4,6.9,0.5
					C560.7,641.8,561.3,641.8,562,641.8z"/>
				<g>
					<path class="st6" d="M535.8,641.2c0.7,0,1.3,0,1.8,0L535.8,641.2z"/>
					<path class="st6" d="M562,641.8c-0.7,0-1.3,0-1.8,0L562,641.8z"/>
					<path class="st6" d="M537.6,641.3l-1.8,0C536.5,641.2,537.1,641.3,537.6,641.3z"/>
					<path class="st6" d="M562,641.8c-0.7,0-1.3,0-1.8,0L562,641.8z"/>
				</g>
				<g>
					<path class="st9" d="M546.2,626.8h2.2c0.3,0,0.5-0.2,0.5-0.5s-0.2-0.5-0.5-0.5h-2.2c-0.3,0-0.5,0.2-0.5,0.5
						S545.9,626.8,546.2,626.8z"/>
					<path class="st9" d="M546.2,628.4h2.2c0.3,0,0.5-0.2,0.5-0.5c0-0.3-0.2-0.5-0.5-0.5h-2.2c-0.3,0-0.5,0.2-0.5,0.5
						C545.6,628.2,545.9,628.4,546.2,628.4z"/>
					<path class="st9" d="M562.1,637.8c-1.1-4.1-4.1-7.5-8.2-9.1v-4.2c0.9,0,1.6-0.7,1.6-1.6s-0.7-1.6-1.6-1.6H544
						c-0.9,0-1.6,0.7-1.6,1.6s0.7,1.6,1.6,1.6v4.2c-3.5,1.3-6.2,4-7.6,7.3c-1.6,3.2-1.1,6.3-1.1,6.3c0.4,7.1,6.4,12.8,13.6,12.8
						c6.9,0,12.7-5.2,13.5-11.9C562.5,643.2,562.6,639.5,562.1,637.8z M543.5,622.9c0-0.3,0.2-0.5,0.5-0.5h9.8
						c0.3,0,0.5,0.2,0.5,0.5s-0.2,0.5-0.5,0.5H544C543.7,623.5,543.5,623.2,543.5,622.9z M544.7,629.7c0.2-0.1,0.4-0.3,0.4-0.5v-4.6
						h7.6v4.6c0,0.2,0.1,0.4,0.4,0.5c4.1,1.5,7.1,4.9,8,9c-4.1,3.3-9.1,0.2-9.1,0.2c-6.4-3.5-11-4-14.2-3.2
						C539.3,632.9,541.7,630.7,544.7,629.7z M548.9,654.1c-6.6,0-11.7-5.1-12.5-11.5l5.8,0.7l8.1-1.3l11.1,1.2
						C560.5,649.3,555.3,654.1,548.9,654.1z"/>
				</g>
				<path class="st7" d="M551.8,641c-6.9-4-11.7-3.9-14.9-2.6c-1.2,2.7-0.2,5.3,0.1,6.7l15.7,0.5l8.6-2.5l0.2-2.1
					C557.2,644.7,551.8,641,551.8,641z"/>
			</g>
		</g>
	</g>
</g>
</svg>
